<?xml version="1.0" standalone="no"?><!DOCTYPE svg PUBLIC "-//W3C//DTD SVG 1.1//EN" "http://www.w3.org/Graphics/SVG/1.1/DTD/svg11.dtd" ><svg xmlns="http://www.w3.org/2000/svg"><metadata>Generated by Glyphter</metadata><defs><font id="IconFonts" horiz-adv-x="0"><font-face units-per-em="1024" ascent="1024" descent="0" font-family="IconFonts" font-weight="normal" /><missing-glyph horiz-adv-x="0" /><glyph unicode="&#x0041;" d="M921.6,716.9C921.6,716.9,512,460.9,512,460.9C512,460.9,102.4,716.9,102.4,716.9C102.4,716.9,102.4,819.3,102.4,819.3C102.4,819.3,512,563.3,512,563.3C512,563.3,921.6,819.3,921.6,819.3M921.6,921.7C921.6,921.7,102.4,921.7,102.4,921.7C45.568,921.7,0,876.132,0,819.3C0,819.3,0,204.9,0,204.9C0,148.324,45.824,102.5,102.4,102.5C102.4,102.5,921.6,102.5,921.6,102.5C978.176,102.5,1024,148.324,1024,204.9C1024,204.9,1024,819.3,1024,819.3C1024,876.132,977.92,921.7,921.6,921.7C921.6,921.7,921.6,921.7,921.6,921.7" class="icon-email"/><glyph unicode="&#x0042;" d="M18.587,530.562C18.587,530.562,254.537,442.498,254.537,442.498C254.537,442.498,345.865,148.791,345.865,148.791C351.708,129.98,374.711,123.027,389.979,135.509C389.979,135.509,521.501,242.729,521.501,242.729C535.288,253.962,554.925,254.522,569.332,244.064C569.332,244.064,806.553,71.837,806.553,71.837C822.885,59.965,846.024,68.915,850.12,88.651C850.12,88.651,1023.897,924.547,1023.897,924.547C1028.368,946.105,1007.185,964.09,986.657,956.151C986.657,956.151,18.31,582.592,18.31,582.592C-5.586,573.376,-5.378,539.543,18.587,530.562C18.587,530.562,18.587,530.562,18.587,530.562M331.146,489.377C331.146,489.377,792.281,773.391,792.281,773.391C800.569,778.48,809.095,767.274,801.979,760.672C801.979,760.672,421.409,406.914,421.409,406.914C408.032,394.462,399.403,377.798,396.959,359.711C396.959,359.711,383.995,263.639,383.995,263.639C382.278,250.812,364.259,249.539,360.719,261.953C360.719,261.953,310.861,437.143,310.861,437.143C305.15,457.124,313.472,478.468,331.146,489.377C331.146,489.377,331.146,489.377,331.146,489.377" class="icon-telegram (1)"/><glyph unicode="&#x0043;" d="M512,1011.693C229.222,1011.693,0,782.471,0,499.693C0,273.389,146.944,81.389,350.208,13.293C375.808,9.197,384,25.069,384,38.893C384,50.669,384,82.925,384,125.421C242.176,94.701,211.968,194.029,211.968,194.029C188.416,253.421,155.136,269.293,155.136,269.293C108.544,301.037,158.72,300.013,158.72,300.013C209.92,296.429,237.056,247.277,237.056,247.277C281.6,169.453,356.864,192.493,386.048,204.781C390.656,238.061,403.968,260.589,418.304,273.389C304.64,286.189,185.344,330.221,185.344,525.293C185.344,582.125,204.8,627.693,238.08,664.045C232.96,676.845,215.04,730.093,243.2,799.213C243.2,799.213,286.208,813.037,384,746.989C424.448,758.253,468.48,763.885,512,763.885C555.52,763.885,599.552,758.253,640,746.989C737.792,813.037,780.8,799.213,780.8,799.213C808.96,730.093,791.04,676.845,785.92,664.045C819.2,627.693,838.656,582.125,838.656,525.293C838.656,329.709,718.848,286.701,604.672,273.901C623.104,258.029,640,226.797,640,179.181C640,110.573,640,55.277,640,38.893C640,25.069,648.192,8.685,674.304,13.293C877.568,81.901,1024,273.389,1024,499.693C1024,782.471,794.778,1011.693,512,1011.693C512,1011.693,512,1011.693,512,1011.693" class="icon-github"/><glyph unicode="&#x0044;" d="M910.222,1024C973.084,1024,1024,973.084,1024,910.222C1024,910.222,1024,113.778,1024,113.778C1024,50.916,973.084,0,910.222,0C910.222,0,113.778,0,113.778,0C50.916,0,0,50.916,0,113.778C0,113.778,0,910.222,0,910.222C0,973.084,50.916,1024,113.778,1024C113.778,1024,910.222,1024,910.222,1024M881.778,142.222C881.778,142.222,881.778,443.733,881.778,443.733C881.778,546.133,798.72,629.191,696.32,629.191C647.964,629.191,591.644,599.609,564.338,555.236C564.338,555.236,564.338,618.382,564.338,618.382C564.338,618.382,405.618,618.382,405.618,618.382C405.618,618.382,405.618,142.222,405.618,142.222C405.618,142.222,564.338,142.222,564.338,142.222C564.338,142.222,564.338,422.684,564.338,422.684C564.338,466.489,599.609,502.329,643.413,502.329C687.388,502.329,723.058,466.66,723.058,422.684C723.058,422.684,723.058,142.222,723.058,142.222C723.058,142.222,881.778,142.222,881.778,142.222M220.729,707.698C273.522,707.698,316.302,750.478,316.302,803.271C316.302,856.178,273.636,899.413,220.729,899.413C167.652,899.413,124.587,856.348,124.587,803.271C124.587,750.364,167.822,707.698,220.729,707.698M299.804,142.222C299.804,142.222,299.804,618.382,299.804,618.382C299.804,618.382,142.222,618.382,142.222,618.382C142.222,618.382,142.222,142.222,142.222,142.222C142.222,142.222,299.804,142.222,299.804,142.222C299.804,142.222,299.804,142.222,299.804,142.222" class="icon-linkedin"/><glyph unicode="&#x0045;" d="M1024,920.869C1024,920.869,920.869,1024,920.869,1024C920.869,1024,512,615.131,512,615.131C512,615.131,103.131,1024,103.131,1024C103.131,1024,0,920.869,0,920.869C0,920.869,408.869,512,408.869,512C408.869,512,0,103.131,0,103.131C0,103.131,103.131,0,103.131,0C103.131,0,512,408.869,512,408.869C512,408.869,920.869,0,920.869,0C920.869,0,1024,103.131,1024,103.131C1024,103.131,615.131,512,615.131,512C615.131,512,1024,920.869,1024,920.869C1024,920.869,1024,920.869,1024,920.869" class="icon-close"/><glyph unicode="&#x0046;" d="M828.32,121.173C828.32,121.173,437.493,512,437.493,512C437.493,512,828.32,903.68,828.32,903.68C828.32,903.68,708,1024,708,1024C708,1024,196,512,196,512C196,512,708,0,708,0C708,0,828.32,121.173,828.32,121.173C828.32,121.173,828.32,121.173,828.32,121.173" class="icon-chevron-left"/><glyph unicode="&#x0047;" d="M196,121.173C196,121.173,586.827,512,586.827,512C586.827,512,196,903.68,196,903.68C196,903.68,316.32,1024,316.32,1024C316.32,1024,828.32,512,828.32,512C828.32,512,316.32,0,316.32,0C316.32,0,196,121.173,196,121.173C196,121.173,196,121.173,196,121.173" class="icon-chevron-right"/><glyph unicode="&#x0048;" d="M0,1024C0,1024,365.714,1024,365.714,1024C365.714,1024,365.714,877.714,365.714,877.714C365.714,877.714,146.286,877.714,146.286,877.714C146.286,877.714,146.286,658.286,146.286,658.286C146.286,658.286,0,658.286,0,658.286C0,658.286,0,1024,0,1024M658.286,1024C658.286,1024,1024,1024,1024,1024C1024,1024,1024,658.286,1024,658.286C1024,658.286,877.714,658.286,877.714,658.286C877.714,658.286,877.714,877.714,877.714,877.714C877.714,877.714,658.286,877.714,658.286,877.714C658.286,877.714,658.286,1024,658.286,1024M877.714,365.714C877.714,365.714,1024,365.714,1024,365.714C1024,365.714,1024,0,1024,0C1024,0,658.286,0,658.286,0C658.286,0,658.286,146.286,658.286,146.286C658.286,146.286,877.714,146.286,877.714,146.286C877.714,146.286,877.714,365.714,877.714,365.714M365.714,146.286C365.714,146.286,365.714,0,365.714,0C365.714,0,0,0,0,0C0,0,0,365.714,0,365.714C0,365.714,146.286,365.714,146.286,365.714C146.286,365.714,146.286,146.286,146.286,146.286C146.286,146.286,365.714,146.286,365.714,146.286C365.714,146.286,365.714,146.286,365.714,146.286" class="icon-fullscreen"/><glyph unicode="&#x0049;" d="M120.32,828.673C120.32,828.673,512,436.993,512,436.993C512,436.993,903.68,828.673,903.68,828.673C903.68,828.673,1024,707.5,1024,707.5C1024,707.5,512,195.5,512,195.5C512,195.5,0,707.5,0,707.5C0,707.5,120.32,828.673,120.32,828.673C120.32,828.673,120.32,828.673,120.32,828.673" class="icon-chevron-down"/><glyph unicode="&#x004a;" d="M1024,830.226C986.31,813.094,945.683,801.836,903.587,796.451C946.662,822.394,979.946,863.511,995.61,912.948C954.983,888.474,909.95,871.342,862.47,861.553C823.801,903.648,769.468,928.122,707.793,928.122C592.765,928.122,498.784,834.141,498.784,718.134C498.784,701.491,500.742,685.338,504.168,670.164C329.912,678.975,174.746,762.677,71.465,889.453C53.354,858.616,43.075,822.394,43.075,784.214C43.075,711.281,79.786,646.669,136.566,609.958C101.813,609.958,69.507,619.748,41.117,634.432C41.117,634.432,41.117,634.432,41.117,632.964C41.117,531.151,113.56,445.981,209.499,426.891C191.878,421.996,173.277,419.549,154.187,419.549C140.971,419.549,127.755,421.017,115.029,423.465C141.461,340.742,218.31,279.067,310.822,277.598C239.358,220.818,148.803,187.533,49.927,187.533C33.285,187.533,16.642,188.512,0,190.47C93.002,130.753,203.625,96,322.08,96C707.793,96,919.74,416.122,919.74,693.66C919.74,702.96,919.74,711.771,919.25,721.071C960.367,750.44,995.61,787.641,1024,830.226C1024,830.226,1024,830.226,1024,830.226" class="icon-twitter"/><glyph unicode="&#x004b;" d="M645.12,276.68C645.12,276.68,880.64,512.2,880.64,512.2C880.64,512.2,645.12,747.72,645.12,747.72C645.12,747.72,716.8,819.4,716.8,819.4C716.8,819.4,1024,512.2,1024,512.2C1024,512.2,716.8,205,716.8,205C716.8,205,645.12,276.68,645.12,276.68M378.88,276.68C378.88,276.68,143.36,512.2,143.36,512.2C143.36,512.2,378.88,747.72,378.88,747.72C378.88,747.72,307.2,819.4,307.2,819.4C307.2,819.4,0,512.2,0,512.2C0,512.2,307.2,205,307.2,205C307.2,205,378.88,276.68,378.88,276.68C378.88,276.68,378.88,276.68,378.88,276.68" class="icon-code-tags"/><glyph unicode="&#x004c;" d="M395.636,675.364C395.636,675.364,465.455,605.545,465.455,605.545C465.455,605.545,325.818,465.909,325.818,465.909C325.818,465.909,465.455,326.273,465.455,326.273C465.455,326.273,395.636,256.455,395.636,256.455C395.636,256.455,186.182,465.909,186.182,465.909C186.182,465.909,395.636,675.364,395.636,675.364M628.364,256.455C628.364,256.455,558.545,326.273,558.545,326.273C558.545,326.273,698.182,465.909,698.182,465.909C698.182,465.909,558.545,605.545,558.545,605.545C558.545,605.545,628.364,675.364,628.364,675.364C628.364,675.364,837.818,465.909,837.818,465.909C837.818,465.909,628.364,256.455,628.364,256.455M930.909,977.909C930.909,977.909,93.091,977.909,93.091,977.909C41.658,977.909,0,936.251,0,884.818C0,884.818,0,140.091,0,140.091C0,88.658,41.658,47,93.091,47C93.091,47,930.909,47,930.909,47C982.342,47,1024,88.658,1024,140.091C1024,140.091,1024,884.818,1024,884.818C1024,936.251,982.342,977.909,930.909,977.909M930.909,140.091C930.909,140.091,93.091,140.091,93.091,140.091C93.091,140.091,93.091,791.727,93.091,791.727C93.091,791.727,930.909,791.727,930.909,791.727C930.909,791.727,930.909,140.091,930.909,140.091C930.909,140.091,930.909,140.091,930.909,140.091" class="icon-application-brackets-outline"/><glyph unicode="&#x004d;" d="M604.15,341.617C604.15,341.617,914.766,31,914.766,31C914.766,31,1024,142.822,1024,142.822C1024,142.822,713.383,453.439,713.383,453.439C713.383,453.439,604.15,341.617,604.15,341.617M796.732,610.818C776.542,610.818,754.799,613.406,737.715,620.654C737.715,620.654,148.061,33.588,148.061,33.588C148.061,33.588,38.827,142.822,38.827,142.822C38.827,142.822,422.439,525.916,422.439,525.916C422.439,525.916,330.807,618.066,330.807,618.066C330.807,618.066,293.533,581.827,293.533,581.827C293.533,581.827,218.467,654.822,218.467,654.822C218.467,654.822,218.467,506.761,218.467,506.761C218.467,506.761,182.229,470.523,182.229,470.523C182.229,470.523,0,654.822,0,654.822C0,654.822,36.239,691.061,36.239,691.061C36.239,691.061,181.711,691.061,181.711,691.061C181.711,691.061,109.234,764.056,109.234,764.056C109.234,764.056,293.533,948.355,293.533,948.355C354.103,1008.925,451.43,1008.925,512,948.355C512,948.355,402.766,836.533,402.766,836.533C402.766,836.533,475.761,764.056,475.761,764.056C475.761,764.056,439.005,727.299,439.005,727.299C439.005,727.299,531.672,635.15,531.672,635.15C531.672,635.15,625.893,732.476,625.893,732.476C618.645,749.56,615.539,771.303,615.539,790.458C615.539,892.444,696.299,972.687,796.732,972.687C827.276,972.687,854.196,965.439,878.528,950.943C878.528,950.943,740.303,812.719,740.303,812.719C740.303,812.719,817.958,735.065,817.958,735.065C817.958,735.065,956.182,873.289,956.182,873.289C970.677,848.958,977.925,823.073,977.925,790.458C977.925,691.061,897.683,610.818,796.732,610.818C796.732,610.818,796.732,610.818,796.732,610.818" class="icon-hammer-wrench"/><glyph unicode="&#x004e;" d="M552.495,369.56C552.495,369.56,434.269,486.389,434.269,486.389C434.269,486.389,435.665,487.785,435.665,487.785C516.655,578.084,574.371,681.88,608.349,791.727C608.349,791.727,744.727,791.727,744.727,791.727C744.727,791.727,744.727,884.818,744.727,884.818C744.727,884.818,418.909,884.818,418.909,884.818C418.909,884.818,418.909,977.909,418.909,977.909C418.909,977.909,325.818,977.909,325.818,977.909C325.818,977.909,325.818,884.818,325.818,884.818C325.818,884.818,0,884.818,0,884.818C0,884.818,0,791.727,0,791.727C0,791.727,519.913,791.727,519.913,791.727C488.727,702.36,439.389,617.182,372.364,542.709C329.076,590.651,293.236,643.247,264.844,698.636C264.844,698.636,171.753,698.636,171.753,698.636C205.731,622.767,252.276,551.087,310.458,486.389C310.458,486.389,73.542,252.731,73.542,252.731C73.542,252.731,139.636,186.636,139.636,186.636C139.636,186.636,372.364,419.364,372.364,419.364C372.364,419.364,517.12,274.607,517.12,274.607C517.12,274.607,552.495,369.56,552.495,369.56M814.545,605.545C814.545,605.545,721.455,605.545,721.455,605.545C721.455,605.545,512,47,512,47C512,47,605.091,47,605.091,47C605.091,47,657.222,186.636,657.222,186.636C657.222,186.636,878.313,186.636,878.313,186.636C878.313,186.636,930.909,47,930.909,47C930.909,47,1024,47,1024,47C1024,47,814.545,605.545,814.545,605.545M692.596,279.727C692.596,279.727,768,481.269,768,481.269C768,481.269,843.404,279.727,843.404,279.727C843.404,279.727,692.596,279.727,692.596,279.727C692.596,279.727,692.596,279.727,692.596,279.727" class="icon-translate"/><glyph unicode="&#x004f;" d="M30.359,584.246C30.359,584.246,326.517,880.917,326.517,880.917C326.517,880.917,413.11,793.811,413.11,793.811C400.813,750.259,420.796,702.607,460.762,679.55C460.762,679.55,460.762,395.689,460.762,395.689C430.019,378.268,409.523,344.963,409.523,307.046C409.523,250.428,455.382,204.569,512,204.569C568.618,204.569,614.477,250.428,614.477,307.046C614.477,344.963,593.981,378.268,563.238,395.689C563.238,395.689,563.238,644.708,563.238,644.708C563.238,644.708,669.302,537.619,669.302,537.619C665.715,529.933,665.715,521.223,665.715,512C665.715,455.382,711.574,409.523,768.192,409.523C824.811,409.523,870.669,455.382,870.669,512C870.669,568.618,824.811,614.477,768.192,614.477C758.969,614.477,750.259,614.477,742.573,610.89C742.573,610.89,610.89,742.573,610.89,742.573C624.212,790.225,599.618,842.488,551.966,862.471C529.933,870.669,506.876,872.719,486.381,867.082C486.381,867.082,399.275,953.675,399.275,953.675C399.275,953.675,439.754,993.641,439.754,993.641C479.72,1034.12,544.28,1034.12,584.246,993.641C584.246,993.641,993.641,584.246,993.641,584.246C1034.12,544.28,1034.12,479.72,993.641,439.754C993.641,439.754,584.246,30.359,584.246,30.359C544.28,-10.12,479.72,-10.12,439.754,30.359C439.754,30.359,30.359,439.754,30.359,439.754C-10.12,479.72,-10.12,544.28,30.359,584.246C30.359,584.246,30.359,584.246,30.359,584.246" class="icon-git"/><glyph unicode="&#x0050;" d="M1024,384.409C1024,223.827,893.673,93.5,733.091,93.5C733.091,93.5,290.909,93.5,290.909,93.5C130.327,93.5,0,223.827,0,384.409C0,484.016,50.269,571.987,126.138,624.118C166.633,800.06,323.956,931.318,512,931.318C700.044,931.318,857.367,800.06,897.862,624.118C974.196,571.987,1024,484.016,1024,384.409M727.505,279.682C788.48,279.682,837.818,329.02,837.818,389.995C837.818,449.573,791.273,498.445,731.695,500.773C731.695,500.773,733.091,524.045,733.091,524.045C733.091,645.995,633.949,745.136,512,745.136C445.905,745.136,386.327,716.278,345.833,670.198C415.651,656.7,476.16,618.533,518.516,565.471C518.516,565.471,395.636,442.591,395.636,442.591C376.087,476.569,339.316,500.773,296.96,500.773C235.52,500.773,186.182,451.435,186.182,389.995C186.182,330.882,232.727,282.94,290.909,279.682C290.909,279.682,290.909,279.682,290.909,279.682C290.909,279.682,727.505,279.682,727.505,279.682C727.505,279.682,727.505,279.682,727.505,279.682" class="icon-google-cloud"/><glyph unicode="&#x0051;" d="M151.437,975.663C151.437,975.663,117.956,803.623,117.956,803.623C117.956,803.623,817.964,803.623,817.964,803.623C817.964,803.623,795.3,692.363,795.3,692.363C795.3,692.363,95.807,692.363,95.807,692.363C95.807,692.363,61.811,520.838,61.811,520.838C61.811,520.838,761.819,520.838,761.819,520.838C761.819,520.838,722.672,324.589,722.672,324.589C722.672,324.589,440.402,231.357,440.402,231.357C440.402,231.357,195.734,324.589,195.734,324.589C195.734,324.589,212.732,409.063,212.732,409.063C212.732,409.063,40.692,409.063,40.692,409.063C40.692,409.063,0,203.027,0,203.027C0,203.027,404.346,48.5,404.346,48.5C404.346,48.5,870.503,203.027,870.503,203.027C870.503,203.027,932.314,513.627,932.314,513.627C932.314,513.627,944.676,575.953,944.676,575.953C944.676,575.953,1024,975.663,1024,975.663C1024,975.663,151.437,975.663,151.437,975.663C151.437,975.663,151.437,975.663,151.437,975.663" class="icon-language-css3"/><glyph unicode="&#x0052;" d="M512.129,195.698C512.129,195.698,743.667,259.982,743.667,259.982C743.667,259.982,774.956,607.004,774.956,607.004C774.956,607.004,363.08,607.004,363.08,607.004C363.08,607.004,352.84,722.489,352.84,722.489C352.84,722.489,785.196,722.489,785.196,722.489C785.196,722.489,796.573,835.698,796.573,835.698C796.573,835.698,227.684,835.698,227.684,835.698C227.684,835.698,259.542,493.796,259.542,493.796C259.542,493.796,651.507,493.796,651.507,493.796C651.507,493.796,638.422,347.022,638.422,347.022C638.422,347.022,512.129,312.889,512.129,312.889C512.129,312.889,385.836,347.022,385.836,347.022C385.836,347.022,377.871,441.458,377.871,441.458C377.871,441.458,264.093,441.458,264.093,441.458C264.093,441.458,280.591,259.982,280.591,259.982C280.591,259.982,512.129,195.698,512.129,195.698M61,1024C61,1024,963.258,1024,963.258,1024C963.258,1024,881.907,102.4,881.907,102.4C881.907,102.4,512.129,0,512.129,0C512.129,0,142.351,102.4,142.351,102.4C142.351,102.4,61,1024,61,1024C61,1024,61,1024,61,1024" class="icon-language-html5"/><glyph unicode="&#x0053;" d="M0,1024C0,1024,1024,1024,1024,1024C1024,1024,1024,0,1024,0C1024,0,0,0,0,0C0,0,0,1024,0,1024M269.084,168.391C291.84,120.036,336.782,80.213,413.582,80.213C498.916,80.213,557.511,125.724,557.511,225.28C557.511,225.28,557.511,554.098,557.511,554.098C557.511,554.098,460.8,554.098,460.8,554.098C460.8,554.098,460.8,227.556,460.8,227.556C460.8,178.631,440.889,166.116,409.6,166.116C376.604,166.116,362.951,188.871,347.591,215.609C347.591,215.609,269.084,168.391,269.084,168.391M609.28,178.631C637.724,122.88,695.182,80.213,785.067,80.213C876.089,80.213,944.356,127.431,944.356,214.471C944.356,294.684,898.276,330.524,816.356,365.796C816.356,365.796,792.462,376.036,792.462,376.036C750.933,393.671,733.298,405.618,733.298,434.062C733.298,457.387,750.933,475.591,779.378,475.591C806.684,475.591,824.889,463.644,841.387,434.062C841.387,434.062,915.911,483.556,915.911,483.556C884.622,538.169,840.249,559.218,779.378,559.218C693.476,559.218,638.293,504.604,638.293,432.356C638.293,353.849,684.373,316.871,753.778,287.289C753.778,287.289,777.671,277.049,777.671,277.049C822.044,257.707,848.213,245.76,848.213,212.764C848.213,185.458,822.613,165.547,782.791,165.547C735.573,165.547,708.267,190.009,687.787,224.142C687.787,224.142,609.28,178.631,609.28,178.631C609.28,178.631,609.28,178.631,609.28,178.631" class="icon-language-javascript"/><glyph unicode="&#x0054;" d="M877.568,768C958.464,768,1024,702.464,1024,621.568C1024,621.568,1024,428.032,1024,428.032C1024,347.136,958.464,281.6,877.568,281.6C877.568,281.6,512,281.6,512,281.6C512,261.632,528.384,232.448,548.352,232.448C548.352,232.448,768,232.448,768,232.448C768,232.448,768,146.432,768,146.432C768,65.536,702.464,0,621.568,0C621.568,0,402.432,0,402.432,0C321.536,0,256,65.536,256,146.432C256,146.432,256,338.432,256,338.432C256,419.328,321.536,484.352,402.432,484.352C402.432,484.352,671.232,484.352,671.232,484.352C752.128,484.352,817.152,549.888,817.152,630.784C817.152,630.784,817.152,768,817.152,768C817.152,768,877.568,768,877.568,768M658.432,164.352C637.952,164.352,621.568,148.992,621.568,118.784C621.568,88.576,637.952,82.432,658.432,82.432C678.502,82.432,694.784,98.714,694.784,118.784C694.784,148.992,678.4,164.352,658.432,164.352M146.432,256C65.536,256,0,321.536,0,402.432C0,402.432,0,595.968,0,595.968C0,676.864,65.536,742.4,146.432,742.4C146.432,742.4,512,742.4,512,742.4C512,762.368,495.616,791.552,475.648,791.552C475.648,791.552,256,791.552,256,791.552C256,791.552,256,877.568,256,877.568C256,958.464,321.536,1024,402.432,1024C402.432,1024,621.568,1024,621.568,1024C702.464,1024,768,958.464,768,877.568C768,877.568,768,685.568,768,685.568C768,604.672,702.464,539.648,621.568,539.648C621.568,539.648,352.768,539.648,352.768,539.648C271.872,539.648,206.848,474.112,206.848,393.216C206.848,393.216,206.848,256,206.848,256C206.848,256,146.432,256,146.432,256M365.568,859.648C386.048,859.648,402.432,875.008,402.432,905.216C402.432,935.424,386.048,941.568,365.568,941.568C345.6,941.568,329.216,935.424,329.216,905.216C329.216,875.008,345.6,859.648,365.568,859.648C365.568,859.648,365.568,859.648,365.568,859.648" class="icon-language-python"/><glyph unicode="&#x0055;" d="M501.248,537.6C501.248,537.6,395.264,537.6,395.264,537.6C395.264,537.6,395.264,707.072,395.264,707.072C395.264,707.072,521.728,707.072,521.728,707.072C586.24,707.072,622.08,678.4,622.08,625.664C622.08,568.32,579.584,537.6,501.248,537.6M520.192,479.744C520.192,479.744,395.264,479.744,395.264,479.744C395.264,479.744,395.264,293.376,395.264,293.376C395.264,293.376,526.336,293.376,526.336,293.376C606.208,293.376,648.192,325.632,648.192,387.072C648.192,448.512,604.672,479.744,520.192,479.744M1024,854.528C1024,854.528,1024,169.472,1024,169.472C1024,76.8,947.2,0,854.528,0C854.528,0,169.472,0,169.472,0C76.8,0,0,76.8,0,169.472C0,169.472,0,854.528,0,854.528C0,947.2,76.8,1024,169.472,1024C169.472,1024,854.528,1024,854.528,1024C947.2,1024,1024,947.2,1024,854.528M716.8,384C716.8,454.656,669.696,505.344,597.504,514.56C597.504,514.56,597.504,517.632,597.504,517.632C648.704,526.848,689.152,578.048,689.152,633.344C689.152,712.704,627.712,765.44,537.6,765.44C537.6,765.44,329.216,765.44,329.216,765.44C329.216,765.44,329.216,235.008,329.216,235.008C329.216,235.008,536.064,235.008,536.064,235.008C649.216,235.008,716.8,290.816,716.8,384C716.8,384,716.8,384,716.8,384" class="icon-bootstrap"/><glyph unicode="&#x0056;" d="M903.823,492.907C975.902,450.501,1024.343,372.181,1024.5,282.489C1024.731,147.486,915.482,37.85,780.479,37.618C645.469,37.381,535.84,146.636,535.602,281.639C535.446,371.325,583.607,449.814,655.541,492.476C655.541,492.476,725.783,373.774,725.783,373.774C727.545,370.8,726.545,366.97,723.683,365.027C697.123,346.945,679.703,316.441,679.765,281.889C679.859,226.506,724.839,181.682,780.223,181.781C835.612,181.875,880.43,226.856,880.337,282.239C880.274,316.791,862.748,347.232,836.125,365.22C833.257,367.157,832.245,370.981,833.994,373.961C833.994,373.961,903.823,492.907,903.823,492.907C903.823,492.907,903.823,492.907,903.823,492.907M364.291,494.332C328.995,514.119,288.289,525.397,244.946,525.397C109.942,525.397,0.5,415.955,0.5,280.946C0.5,145.942,109.942,36.5,244.946,36.5C380.617,36.5,492.728,151.678,489.316,287.219C489.316,287.219,351.707,287.219,351.707,287.219C348.096,287.219,345.247,284.163,345.228,280.546C344.878,226.531,299.804,180.663,244.946,180.663C189.562,180.663,144.663,225.562,144.663,280.946C144.663,336.335,189.562,381.234,244.946,381.234C259.454,381.234,273.237,378.154,285.683,372.612C288.726,371.262,292.356,372.287,294.05,375.155C294.05,375.155,364.291,494.332,364.291,494.332C364.291,494.332,364.291,494.332,364.291,494.332M384.06,532.683C312.05,575.214,263.752,653.621,263.752,743.307C263.752,878.317,373.195,987.759,508.198,987.759C643.208,987.759,752.65,878.317,752.65,743.307C752.65,653.621,704.345,575.214,632.336,532.683C632.336,532.683,562.307,651.503,562.307,651.503C560.551,654.484,561.557,658.308,564.419,660.251C591.011,678.283,608.487,708.755,608.487,743.307C608.487,798.697,563.588,843.596,508.198,843.596C452.815,843.596,407.916,798.697,407.916,743.307C407.916,708.755,425.385,678.283,451.984,660.251C454.845,658.308,455.845,654.484,454.089,651.503C454.089,651.503,384.06,532.683,384.06,532.683C384.06,532.683,384.06,532.683,384.06,532.683" class="icon-OpenCV_logo_no_text-1"/><glyph unicode="&#x0057;" d="M749.876,326.795C749.876,326.795,750.097,100.296,750.097,100.296C750.097,100.296,549.107,0,549.107,0C549.107,0,549.107,226.397,549.107,226.397C549.107,226.397,749.876,326.795,749.876,326.795C749.876,326.795,749.876,326.795,749.876,326.795M991.094,447.851C991.094,447.851,991.094,220.559,991.094,220.559C991.094,220.559,819.667,135.008,819.667,135.008C819.667,135.008,819.543,361.26,819.543,361.26C819.543,361.26,991.094,447.851,991.094,447.851C991.094,447.851,991.094,447.851,991.094,447.851M749.58,629.963C749.58,629.963,749.801,405.841,749.801,405.841C749.801,405.841,549.107,306.114,549.107,306.114C549.107,306.114,549.107,530.31,549.107,530.31C549.107,530.31,749.58,629.963,749.58,629.963C749.58,629.963,749.58,629.963,749.58,629.963M991.094,750.027C991.094,750.027,991.094,527.316,991.094,527.316C991.094,527.316,819.495,440.081,819.495,440.081C819.495,440.081,819.345,664.649,819.345,664.649C819.345,664.649,991.094,750.027,991.094,750.027C991.094,750.027,991.094,750.027,991.094,750.027M518.553,776.375C518.553,776.375,697.944,685.828,697.944,685.828C697.944,685.828,511.824,592.358,511.824,592.358C511.824,592.358,335.824,680.753,335.824,680.753C335.824,680.753,518.553,776.375,518.553,776.375C518.553,776.375,518.553,776.375,518.553,776.375M269.023,902.33C269.023,902.33,440.128,815.96,440.128,815.96C440.128,815.96,256.976,720.364,256.976,720.364C256.976,720.364,81.245,808.613,81.245,808.613C81.245,808.613,269.023,902.33,269.023,902.33C269.023,902.33,269.023,902.33,269.023,902.33M758.14,901.016C758.14,901.016,942.43,808.613,942.43,808.613C942.43,808.613,777.608,725.832,777.608,725.832C777.608,725.832,597.847,816.506,597.847,816.506C597.847,816.506,758.14,901.016,758.14,901.016C758.14,901.016,758.14,901.016,758.14,901.016M512.913,1024C512.913,1024,678.82,940.826,678.82,940.826C678.82,940.826,519.743,855.893,519.743,855.893C519.743,855.893,348.784,942.109,348.784,942.109C348.784,942.109,512.913,1024,512.913,1024C512.913,1024,512.913,1024,512.913,1024M478.153,530.31C478.153,530.31,342.774,598.368,342.774,598.368C342.774,598.368,342.774,304.182,342.774,304.182C342.774,304.182,177.211,656.46,161.874,688.103C159.895,692.183,151.755,696.663,149.677,697.752C119.988,713.336,33,757.4,33,757.4C33,757.4,33,237.655,33,237.655C33,237.655,153.338,173.332,153.338,173.332C153.338,173.332,153.338,445.003,153.338,445.003C153.338,445.003,317.145,130.233,318.799,126.793C320.457,123.354,336.909,90.18,354.477,78.526C377.883,63.039,478.179,2.721,478.179,2.721C478.179,2.721,478.153,530.31,478.153,530.31C478.153,530.31,478.153,530.31,478.153,530.31" class="icon-numpy"/><glyph unicode="&#x0058;" d="M531.959,1024C531.959,1024,969.981,774.814,969.981,774.814C969.981,774.814,969.981,547.041,969.981,547.041C969.981,547.041,707.167,700.836,707.167,700.836C707.167,700.836,707.167,585.978,707.167,585.978C707.167,585.978,837.602,510.052,837.602,510.052C837.602,510.052,839.55,313.428,839.55,313.428C839.55,313.428,707.167,389.353,707.167,389.353C707.167,389.353,707.167,101.231,707.167,101.231C707.167,101.231,531.959,0,531.959,0C531.959,0,531.959,1024,531.959,1024C531.959,1024,531.959,1024,531.959,1024M493.022,1024C493.022,1024,493.022,0,493.022,0C493.022,0,317.814,101.231,317.814,101.231C317.814,101.231,317.814,700.836,317.814,700.836C317.814,700.836,55,547.041,55,547.041C55,547.041,55,774.814,55,774.814C55,774.814,493.022,1024,493.022,1024C493.022,1024,493.022,1024,493.022,1024" class="icon-tensorflow"/><glyph unicode="&#x0059;" d="M512.333,512C512.333,557.272,530.316,600.675,562.312,632.688C594.325,664.684,637.728,682.667,683,682.667C728.272,682.667,771.675,664.684,803.688,632.688C835.684,600.675,853.667,557.272,853.667,512C853.667,466.728,835.684,423.325,803.688,391.312C771.675,359.316,728.272,341.333,683,341.333C637.728,341.333,594.325,359.316,562.312,391.312C530.316,423.325,512.333,466.728,512.333,512C512.333,512,512.333,512,512.333,512C512.333,512,512.333,512,512.333,512M171,170.667C171,215.938,188.983,259.341,220.978,291.355C252.992,323.35,296.395,341.333,341.667,341.333C341.667,341.333,512.333,341.333,512.333,341.333C512.333,341.333,512.333,170.667,512.333,170.667C512.333,125.395,494.35,81.992,462.337,49.978C430.341,17.983,386.938,0,341.667,0C296.395,0,252.992,17.983,220.978,49.978C188.983,81.992,171,125.395,171,170.667C171,170.667,171,170.667,171,170.667M512.333,1024C512.333,1024,512.333,682.667,512.333,682.667C512.333,682.667,683,682.667,683,682.667C728.272,682.667,771.675,700.65,803.67,732.645C835.684,764.659,853.667,808.062,853.667,853.333C853.667,898.605,835.684,942.008,803.67,974.022C771.675,1006.017,728.272,1024,683,1024C683,1024,512.333,1024,512.333,1024C512.333,1024,512.333,1024,512.333,1024M171,853.333C171,808.062,188.983,764.659,220.978,732.645C252.992,700.65,296.395,682.667,341.667,682.667C341.667,682.667,512.333,682.667,512.333,682.667C512.333,682.667,512.333,1024,512.333,1024C512.333,1024,341.667,1024,341.667,1024C296.395,1024,252.992,1006.017,220.978,974.022C188.983,942.008,171,898.605,171,853.333C171,853.333,171,853.333,171,853.333M171,512C171,466.728,188.983,423.325,220.978,391.312C252.992,359.316,296.395,341.333,341.667,341.333C341.667,341.333,512.333,341.333,512.333,341.333C512.333,341.333,512.333,682.667,512.333,682.667C512.333,682.667,341.667,682.667,341.667,682.667C296.395,682.667,252.992,664.684,220.978,632.688C188.983,600.675,171,557.272,171,512C171,512,171,512,171,512" class="icon-figma"/><glyph unicode="&#x005a;" d="M229.126,816.536C229.126,816.536,360.012,816.536,360.012,816.536C360.012,816.536,588.638,208,588.638,208C588.638,208,462.001,208,462.001,208C462.001,208,411.856,353.335,411.856,353.335C411.856,353.335,177.281,353.335,177.281,353.335C177.281,353.335,127.137,208,127.137,208C127.137,208,0.5,208,0.5,208C0.5,208,229.126,816.536,229.126,816.536C229.126,816.536,229.126,816.536,229.126,816.536M374.46,458.723C374.46,458.723,320.066,610.857,320.066,610.857C320.066,610.857,297.969,684.8,297.969,684.8C297.969,684.8,291.169,684.8,291.169,684.8C291.169,684.8,269.072,610.857,269.072,610.857C269.072,610.857,214.677,458.723,214.677,458.723C214.677,458.723,374.46,458.723,374.46,458.723C374.46,458.723,374.46,458.723,374.46,458.723M637.791,208C637.791,208,637.791,309.139,637.791,309.139C671.221,342.002,702.101,372.599,730.431,400.93C742.33,412.828,754.512,425.01,766.977,437.476C779.443,449.941,791.058,461.557,801.824,472.322C812.589,483.088,822.221,492.72,830.721,501.219C839.22,510.285,845.736,517.367,850.268,522.467C859.334,533.232,867.267,542.865,874.066,551.364C881.432,559.863,887.098,568.079,891.064,576.011C895.597,584.51,898.997,592.726,901.263,600.658C903.529,609.158,904.663,618.223,904.663,627.856C904.663,646.554,897.297,662.702,882.565,676.3C867.833,690.466,847.719,697.548,822.221,697.548C796.724,697.548,776.893,690.182,762.728,675.451C748.563,661.285,738.93,645.137,733.831,627.006C733.831,627.006,632.691,668.651,632.691,668.651C637.224,683.95,644.59,699.531,654.789,715.396C664.988,731.828,678.02,746.276,693.885,758.742C709.75,771.774,728.448,782.256,749.979,790.188C772.077,798.688,796.724,802.937,823.921,802.937C853.385,802.937,880.015,798.404,903.813,789.338C927.61,780.839,947.725,768.941,964.156,753.642C980.588,738.344,993.337,720.212,1002.402,699.248C1011.468,678.85,1016.001,656.753,1016.001,632.955C1016.001,596.692,1006.935,563.262,988.804,532.666C971.239,502.635,949.708,474.588,924.211,448.525C924.211,448.525,851.118,375.432,851.118,375.432C831.854,356.168,810.039,334.637,785.675,310.839C785.675,310.839,789.075,305.74,789.075,305.74C789.075,305.74,1024.5,305.74,1024.5,305.74C1024.5,305.74,1024.5,208,1024.5,208C1024.5,208,637.791,208,637.791,208C637.791,208,637.791,208,637.791,208" class="icon-A2"/><glyph unicode="&#x0061;" d="M652.504,272.316C617.625,230.198,576.494,197.951,529.111,175.576C481.728,153.859,428.751,143,370.18,143C317.532,143,268.504,152.542,223.095,171.627C178.344,190.712,139.517,216.707,106.612,249.612C73.707,282.517,47.712,321.344,28.627,366.095C9.542,411.504,0,460.203,0,512.193C0,564.183,9.542,612.553,28.627,657.303C47.712,702.712,73.707,741.869,106.612,774.774C139.517,807.679,178.344,833.674,223.095,852.758C268.504,871.843,317.532,881.386,370.18,881.386C426.776,881.386,476.463,871.514,519.239,851.771C562.674,832.028,601.172,803.401,634.735,765.889C634.735,765.889,540.956,675.072,540.956,675.072C519.897,699.422,495.548,718.835,467.907,733.314C440.925,747.792,408.679,755.031,371.167,755.031C338.262,755.031,307.332,749.108,278.375,737.262C249.419,726.075,224.082,709.951,202.365,688.892C181.306,667.833,164.524,642.167,152.021,611.895C139.517,582.28,133.265,549.046,133.265,512.193C133.265,475.339,139.517,441.776,152.021,411.504C164.524,381.889,181.306,356.553,202.365,335.494C224.082,314.434,249.419,297.982,278.375,286.136C307.332,274.949,338.262,269.355,371.167,269.355C410.653,269.355,445.532,277.252,475.805,293.046C506.735,309.499,534.046,332.532,557.738,362.147C557.738,362.147,652.504,272.316,652.504,272.316C652.504,272.316,652.504,272.316,652.504,272.316M894.684,158.794C894.684,158.794,894.684,681.982,894.684,681.982C894.684,681.982,775.239,631.638,775.239,631.638C775.239,631.638,727.938,741.211,727.938,741.211C727.856,741.211,926.272,834.003,926.272,834.003C926.272,834.003,1024,834.003,1024,834.003C1024,834.003,1024,158.794,1024,158.794C1024,158.794,894.684,158.794,894.684,158.794C894.684,158.794,894.684,158.794,894.684,158.794" class="icon-C1"/><glyph unicode="&#x0062;" d="M482.942,382.261C482.942,382.261,564.998,304.478,564.998,304.478C534.799,268.006,499.182,240.226,458.154,221.14C417.126,202.053,371.251,192.505,320.539,192.505C287.844,192.317,255.304,196.959,223.969,206.301C213.66,209.421,203.523,213.096,193.608,217.293C154.571,233.816,120.809,256.33,92.32,284.819C63.831,313.308,41.317,347.07,24.794,386.107C8.887,424.049,0.485,464.727,0.058,505.866C0.024,507.969,0.006,510.08,0.006,512.183C-0.224,548.775,5.742,585.136,17.649,619.736C19.828,625.985,22.213,632.165,24.794,638.259C41.317,677.295,63.831,711.058,92.32,739.547C120.809,768.036,154.571,790.55,193.608,807.073C229.174,821.971,267.159,830.262,305.7,831.561C310.649,831.758,315.59,831.86,320.539,831.86C342.352,831.963,364.131,830.074,385.602,826.219C407.826,822.244,429.468,815.526,450.034,806.218C486.181,789.507,518.628,765.762,545.492,736.367C546.877,734.872,548.253,733.367,549.612,731.854C549.612,731.854,468.411,653.217,468.411,653.217C450.179,674.304,429.238,691.108,405.587,703.648C390.91,711.306,375.115,716.597,358.789,719.341C346.438,721.461,333.924,722.503,321.393,722.452C295.606,722.614,269.989,718.153,245.765,709.297C244.184,708.716,242.611,708.118,241.047,707.494C215.977,697.519,194.181,683.416,175.658,665.184C159.221,648.866,145.802,629.763,136.015,608.77C134.476,605.53,133.023,602.248,131.638,598.94C120.809,573.016,115.398,544.091,115.398,512.183C115.313,495.045,117.039,477.95,120.535,461.171C123.125,448.94,126.835,436.973,131.638,425.426C139.006,407.484,148.87,390.663,160.939,375.474C165.521,369.764,170.436,364.319,175.658,359.182C194.181,340.95,215.977,326.847,241.047,316.872C266.211,306.965,293.016,301.888,320.06,301.914C320.504,301.914,320.949,301.914,321.393,301.914C338.403,301.811,355.361,303.734,371.918,307.649C385.996,311.017,399.603,316.128,412.425,322.855C434.443,334.582,454.29,350.002,471.086,368.448C475.198,372.91,479.155,377.517,482.942,382.261C482.942,382.261,482.942,382.261,482.942,382.261M1024,206.182C1024,206.182,635.088,206.182,635.088,206.182C635.088,206.182,635.088,307.897,635.088,307.897C668.705,340.95,699.767,371.721,728.256,400.21C728.256,400.21,765.01,436.965,765.01,436.965C765.01,436.965,800.055,472.01,800.055,472.01C805.124,477.078,810.175,482.164,815.21,487.267C819.988,492.113,824.484,496.712,828.706,501.071C828.843,501.216,828.98,501.353,829.116,501.499C831.134,503.584,833.142,505.678,835.151,507.772C839.04,511.85,842.408,515.431,845.237,518.525C846.425,519.824,847.605,521.124,848.776,522.44C852.836,527.261,856.887,532.082,860.939,536.911C864.743,541.45,868.324,545.741,871.7,549.784C872.179,550.356,872.658,550.929,873.136,551.502C880.256,560.049,885.957,568.451,890.231,576.717C893.471,582.939,896.214,589.418,898.42,596.077C899.01,597.872,899.557,599.684,900.061,601.505C901.668,607.402,902.702,613.445,903.147,619.548C903.369,622.506,903.48,625.463,903.48,628.429C903.548,645.593,896.762,662.072,884.633,674.218C883.539,675.372,882.41,676.492,881.256,677.578C871.803,686.364,860.212,692.527,847.639,695.45C839.92,697.365,831.51,698.382,822.398,698.502C821.791,698.51,821.176,698.519,820.569,698.519C794.926,698.519,774.985,691.254,760.736,676.723C751.513,667.449,743.889,656.705,738.196,644.926C735.53,639.336,733.35,633.532,731.675,627.575C731.675,627.575,629.959,669.457,629.959,669.457C632.686,678.518,636.156,687.339,640.353,695.827C643.917,703.058,647.866,710.092,652.183,716.896C662.44,733.136,675.543,747.667,691.501,760.489C702.416,769.181,714.246,776.652,726.777,782.781C733.803,786.242,741,789.362,748.342,792.114C762.634,797.414,777.506,800.995,792.644,802.765C802.474,803.944,812.372,804.525,822.278,804.508C837.296,804.568,852.289,803.312,867.093,800.765C879.196,798.662,891.086,795.482,902.625,791.26C915.865,786.447,928.533,780.208,940.422,772.652C948.568,767.438,956.227,761.514,963.313,754.933C979.835,739.547,992.656,721.452,1001.776,700.656C1010.897,679.86,1015.452,657.491,1015.452,633.558C1015.452,597.086,1006.478,563.613,988.528,533.124C970.578,502.635,948.782,474.292,923.139,448.077C923.139,448.077,849.63,374.568,849.63,374.568C839.673,364.618,829.689,354.695,819.671,344.805C809.107,334.369,797.944,323.402,786.174,311.906C785.387,311.137,784.601,310.376,783.815,309.607C783.815,309.607,787.234,304.478,787.234,304.478C787.234,304.478,1024,304.478,1024,304.478C1024,304.478,1024,206.182,1024,206.182C1024,206.182,1024,206.182,1024,206.182" class="icon-c2"/><glyph unicode="&#x0063;" d="M93.091,1024C41.658,1024,0,982.342,0,930.909C0,930.909,0,93.091,0,93.091C0,41.658,41.658,0,93.091,0C93.091,0,930.909,0,930.909,0C982.342,0,1024,41.658,1024,93.091C1024,93.091,1024,930.909,1024,930.909C1024,982.342,982.342,1024,930.909,1024C930.909,1024,93.091,1024,93.091,1024C93.091,1024,93.091,1024,93.091,1024M186.182,745.1C186.182,745.1,371.386,745.1,371.386,745.1C463.034,745.1,525.731,682.403,525.731,589.824C525.731,498.828,460.707,436.457,367.802,436.457C367.802,436.457,268.288,436.457,268.288,436.457C268.288,436.457,268.288,285.929,268.288,285.929C268.288,285.929,186.182,285.929,186.182,285.929C186.182,285.929,186.182,745.1,186.182,745.1C186.182,745.1,186.182,745.1,186.182,745.1M268.288,676.352C268.288,676.352,268.288,504.553,268.288,504.553C268.288,504.553,349.463,504.553,349.463,504.553C408.017,504.553,442.368,535.087,442.368,589.824C442.368,646.097,408.902,676.352,349.743,676.352C349.743,676.352,268.288,676.352,268.288,676.352C268.288,676.352,268.288,676.352,268.288,676.352M707.817,641.071C790.528,641.071,842.473,604.486,848.198,541.184C848.198,541.184,774.097,541.184,774.097,541.184C768.372,565.667,745.1,581.26,708.189,581.26C672.256,581.26,645.167,564.038,645.167,538.903C645.167,519.168,661.737,507.113,696.739,499.2C696.739,499.2,758.086,485.19,758.086,485.19C824.599,470.249,855.459,441.577,855.459,390.377C855.459,323.491,794.019,278.9,707.165,278.9C620.311,278.9,565.574,316.509,559.523,379.811C559.523,379.811,637.533,379.811,637.533,379.811C645.167,354.025,669.603,338.711,709.073,338.711C748.823,338.711,776.564,356.212,776.564,381.999C776.564,401.734,761.623,414.208,728.529,421.562C728.529,421.562,666.81,435.805,666.81,435.805C599.971,451.072,568.553,481.932,568.553,534.435C568.553,597.457,625.711,641.071,707.817,641.071C707.817,641.071,707.817,641.071,707.817,641.071" class="icon-photoshop"/><glyph unicode="&#x0064;" d="M296.96,1024C296.96,1024,727.04,1024,727.04,1024C890.88,1024,1024,890.88,1024,727.04C1024,727.04,1024,296.96,1024,296.96C1024,132.966,891.034,0,727.04,0C727.04,0,296.96,0,296.96,0C133.12,0,0,133.12,0,296.96C0,296.96,0,727.04,0,727.04C0,891.034,132.966,1024,296.96,1024M286.72,921.6C184.934,921.6,102.4,839.066,102.4,737.28C102.4,737.28,102.4,286.72,102.4,286.72C102.4,184.832,184.832,102.4,286.72,102.4C286.72,102.4,737.28,102.4,737.28,102.4C839.066,102.4,921.6,184.934,921.6,286.72C921.6,286.72,921.6,737.28,921.6,737.28C921.6,839.168,839.168,921.6,737.28,921.6C737.28,921.6,286.72,921.6,286.72,921.6M780.8,844.8C816.128,844.8,844.8,816.128,844.8,780.8C844.8,745.472,816.128,716.8,780.8,716.8C745.472,716.8,716.8,745.472,716.8,780.8C716.8,816.128,745.472,844.8,780.8,844.8M512,768C653.363,768,768,653.363,768,512C768,370.637,653.363,256,512,256C370.637,256,256,370.637,256,512C256,653.363,370.637,768,512,768M512,665.6C427.162,665.6,358.4,596.838,358.4,512C358.4,427.162,427.162,358.4,512,358.4C596.838,358.4,665.6,427.162,665.6,512C665.6,596.838,596.838,665.6,512,665.6C512,665.6,512,665.6,512,665.6" class="icon-instagram"/><glyph unicode="&#x0065;" d="M604.65,341.617C604.65,341.617,915.266,31,915.266,31C915.266,31,1024.5,142.822,1024.5,142.822C1024.5,142.822,713.883,453.439,713.883,453.439C713.883,453.439,604.65,341.617,604.65,341.617M797.232,610.818C777.042,610.818,755.299,613.406,738.215,620.654C738.215,620.654,148.561,33.588,148.561,33.588C148.561,33.588,39.327,142.822,39.327,142.822C39.327,142.822,422.939,525.916,422.939,525.916C422.939,525.916,331.307,618.066,331.307,618.066C331.307,618.066,294.033,581.827,294.033,581.827C294.033,581.827,218.967,654.822,218.967,654.822C218.967,654.822,218.967,506.761,218.967,506.761C218.967,506.761,182.729,470.523,182.729,470.523C182.729,470.523,0.5,654.822,0.5,654.822C0.5,654.822,36.739,691.061,36.739,691.061C36.739,691.061,182.211,691.061,182.211,691.061C182.211,691.061,109.734,764.056,109.734,764.056C109.734,764.056,294.033,948.355,294.033,948.355C354.603,1008.925,451.93,1008.925,512.5,948.355C512.5,948.355,403.266,836.533,403.266,836.533C403.266,836.533,476.261,764.056,476.261,764.056C476.261,764.056,439.505,727.299,439.505,727.299C439.505,727.299,532.172,635.15,532.172,635.15C532.172,635.15,626.393,732.476,626.393,732.476C619.145,749.56,616.039,771.303,616.039,790.458C616.039,892.444,696.799,972.687,797.232,972.687C827.776,972.687,854.696,965.439,879.028,950.943C879.028,950.943,740.803,812.719,740.803,812.719C740.803,812.719,818.458,735.065,818.458,735.065C818.458,735.065,956.682,873.289,956.682,873.289C971.177,848.958,978.425,823.073,978.425,790.458C978.425,691.061,898.183,610.818,797.232,610.818C797.232,610.818,797.232,610.818,797.232,610.818" class="icon-hammer-wrench"/><glyph unicode="&#x0066;" d="M409.6,998.8C409.6,998.8,614.4,998.8,614.4,998.8C670.976,998.8,716.8,952.976,716.8,896.4C716.8,896.4,716.8,794,716.8,794C716.8,794,921.6,794,921.6,794C978.176,794,1024,748.176,1024,691.6C1024,691.6,1024,128.4,1024,128.4C1024,71.824,978.176,26,921.6,26C921.6,26,102.4,26,102.4,26C45.568,26,0,72.08,0,128.4C0,128.4,0,691.6,0,691.6C0,748.432,45.568,794,102.4,794C102.4,794,307.2,794,307.2,794C307.2,794,307.2,896.4,307.2,896.4C307.2,953.232,352.768,998.8,409.6,998.8M614.4,794C614.4,794,614.4,896.4,614.4,896.4C614.4,896.4,409.6,896.4,409.6,896.4C409.6,896.4,409.6,794,409.6,794C409.6,794,614.4,794,614.4,794C614.4,794,614.4,794,614.4,794" class="icon-briefcase"/></font>
</defs>
</svg>
