<svg xmlns="http://www.w3.org/2000/svg" xmlns:xlink="http://www.w3.org/1999/xlink" id="Group_2" x="0" y="0" version="1.1" viewBox="0 0 115 141.5" xml:space="preserve" style="enable-background:new 0 0 115 141.5"><style type="text/css">.st0{fill:url(#Path_1_1_)}.st1{fill:url(#SVGID_1_)}.st2{fill:url(#Path_3_1_)}</style><g id="Group_1"><linearGradient id="Path_1_1_" x1="-893.876" x2="-892.636" y1="608.192" y2="608.192" gradientTransform="matrix(111.348 0 0 -141.472 99533.9063 86112.8672)" gradientUnits="userSpaceOnUse"><stop offset="0" style="stop-color:#a412d5"/><stop offset="1" style="stop-color:#000"/></linearGradient><path id="Path_1" d="M0,141.5V0h41.9c20.9,0,37.7,6.5,50.4,19.6s19,30.1,19,51.2c0,21.2-6.3,38.3-19,51.3 s-29.5,19.5-50.4,19.5H0z" class="st0"/></g><g><linearGradient id="SVGID_1_" x1="34.719" x2="108.299" y1="144.642" y2="71.308" gradientUnits="userSpaceOnUse"><stop offset="0" style="stop-color:#20cfbe"/><stop offset=".989" style="stop-color:#2b59f5"/></linearGradient><path d="M82.6,69.6L0,141.5h43.3c21.6,0,39-6.5,52.1-19.5c7.9-7.8,13.4-17.1,16.5-27.9L82.6,69.6z" class="st1"/></g><linearGradient id="Path_3_1_" x1="-894.157" x2="-893.157" y1="606.526" y2="606.526" gradientTransform="matrix(115.0022 0 0 -94.1 102829.9922 57121.2031)" gradientUnits="userSpaceOnUse"><stop offset="0" style="stop-color:#fe353f"/><stop offset="1" style="stop-color:#ffbf15"/></linearGradient><path id="Path_3" d="M115,70.7c0-21.1-6.6-38.1-19.7-51.2C82.2,6.5,64.9,0,43.3,0H0l111.9,94.2	C114,86.6,115.1,78.6,115,70.7z" class="st2"/></svg>